HIERARCHY
ROOT mixamorig:Hips
{
	OFFSET 0.000000 201.639420 0.000000
	CHANNELS 6 Xposition Yposition Zposition Xrotation Yrotation Zrotation
	JOINT mixamorig:Spine
	{
		OFFSET 0.006200 19.524994 -2.481800
		CHANNELS 3 Xrotation Yrotation Zrotation
		JOINT mixamorig:Spine1
		{
			OFFSET -0.000900 22.835007 -2.825400
			CHANNELS 3 Xrotation Yrotation Zrotation
			JOINT mixamorig:Spine2
			{
				OFFSET -0.020600 26.552490 -3.193300
				CHANNELS 3 Xrotation Yrotation Zrotation
				JOINT mixamorig:Neck
				{
					OFFSET -0.060000 30.701813 1.352200
					CHANNELS 3 Xrotation Yrotation Zrotation
					JOINT mixamorig:Head
					{
						OFFSET -0.087200 22.547607 3.670900
						CHANNELS 3 Xrotation Yrotation Zrotation
						JOINT mixamorig:HeadTop_End
						{
							OFFSET -0.830600 40.355194 7.893500
							CHANNELS 3 Xrotation Yrotation Zrotation
							End Site
							{
								OFFSET 0.000000 30.592346 0.000000
							}
						}
						JOINT mixamorig:RightEye
						{
							OFFSET -6.302100 18.118591 16.197100
							CHANNELS 3 Xrotation Yrotation Zrotation
							End Site
							{
								OFFSET 0.000000 30.592346 0.000000
							}
						}
						JOINT mixamorig:LeftEye
						{
							OFFSET 6.741500 18.382690 16.401899
							CHANNELS 3 Xrotation Yrotation Zrotation
							End Site
							{
								OFFSET 0.000000 30.592346 0.000000
							}
						}
					}
				}
				JOINT mixamorig:LeftShoulder
				{
					OFFSET 11.924900 18.230499 1.425400
					CHANNELS 3 Xrotation Yrotation Zrotation
					JOINT mixamorig:LeftArm
					{
						OFFSET 25.435989 -0.697632 -5.229300
						CHANNELS 3 Xrotation Yrotation Zrotation
						JOINT mixamorig:LeftForeArm
						{
							OFFSET 54.684776 0.000000 0.000000
							CHANNELS 3 Xrotation Yrotation Zrotation
							JOINT mixamorig:LeftHand
							{
								OFFSET 55.098175 0.000000 0.000000
								CHANNELS 3 Xrotation Yrotation Zrotation
								JOINT mixamorig:LeftHandMiddle1
								{
									OFFSET 23.369751 0.000000 0.000000
									CHANNELS 3 Xrotation Yrotation Zrotation
									JOINT mixamorig:LeftHandMiddle2
									{
										OFFSET 6.378677 0.000000 0.000000
										CHANNELS 3 Xrotation Yrotation Zrotation
										JOINT mixamorig:LeftHandMiddle3
										{
											OFFSET 6.148331 0.000000 0.000000
											CHANNELS 3 Xrotation Yrotation Zrotation
											JOINT mixamorig:LeftHandMiddle4
											{
												OFFSET 6.582504 0.000000 0.000000
												CHANNELS 3 Xrotation Yrotation Zrotation
												End Site
												{
													OFFSET -1.168900 6.395691 1.028606
												}
											}
										}
									}
								}
								JOINT mixamorig:LeftHandThumb1
								{
									OFFSET 7.235672 -3.848206 5.434273
									CHANNELS 3 Xrotation Yrotation Zrotation
									JOINT mixamorig:LeftHandThumb2
									{
										OFFSET 6.568451 -3.792297 3.792300
										CHANNELS 3 Xrotation Yrotation Zrotation
										JOINT mixamorig:LeftHandThumb3
										{
											OFFSET 6.063080 -3.500519 3.500518
											CHANNELS 3 Xrotation Yrotation Zrotation
											JOINT mixamorig:LeftHandThumb4
											{
												OFFSET 4.793182 -2.767334 2.767349
												CHANNELS 3 Xrotation Yrotation Zrotation
												End Site
												{
													OFFSET 0.101639 6.054260 1.275483
												}
											}
										}
									}
								}
								JOINT mixamorig:LeftHandIndex1
								{
									OFFSET 23.101074 -0.309540 4.992809
									CHANNELS 3 Xrotation Yrotation Zrotation
									JOINT mixamorig:LeftHandIndex2
									{
										OFFSET 6.226883 0.000000 0.000000
										CHANNELS 3 Xrotation Yrotation Zrotation
										JOINT mixamorig:LeftHandIndex3
										{
											OFFSET 6.094330 0.000000 0.000000
											CHANNELS 3 Xrotation Yrotation Zrotation
											JOINT mixamorig:LeftHandIndex4
											{
												OFFSET 5.482605 0.000000 0.000000
												CHANNELS 3 Xrotation Yrotation Zrotation
												End Site
												{
													OFFSET -1.427902 5.233032 0.797164
												}
											}
										}
									}
								}
								JOINT mixamorig:LeftHandRing1
								{
									OFFSET 22.299240 0.021149 -3.964172
									CHANNELS 3 Xrotation Yrotation Zrotation
									JOINT mixamorig:LeftHandRing2
									{
										OFFSET 6.321869 0.000000 0.000000
										CHANNELS 3 Xrotation Yrotation Zrotation
										JOINT mixamorig:LeftHandRing3
										{
											OFFSET 5.899796 0.000000 0.000000
											CHANNELS 3 Xrotation Yrotation Zrotation
											JOINT mixamorig:LeftHandRing4
											{
												OFFSET 6.517899 0.000000 0.000000
												CHANNELS 3 Xrotation Yrotation Zrotation
												End Site
												{
													OFFSET -1.637299 6.232208 0.980890
												}
											}
										}
									}
								}
								JOINT mixamorig:LeftHandPinky1
								{
									OFFSET 20.463791 -0.302338 -8.562233
									CHANNELS 3 Xrotation Yrotation Zrotation
									JOINT mixamorig:LeftHandPinky2
									{
										OFFSET 6.908646 0.000000 0.000000
										CHANNELS 3 Xrotation Yrotation Zrotation
										JOINT mixamorig:LeftHandPinky3
										{
											OFFSET 4.622849 0.000000 0.000000
											CHANNELS 3 Xrotation Yrotation Zrotation
											JOINT mixamorig:LeftHandPinky4
											{
												OFFSET 5.216080 0.000000 0.000000
												CHANNELS 3 Xrotation Yrotation Zrotation
												End Site
												{
													OFFSET -0.606308 5.116241 0.814926
												}
											}
										}
									}
								}
							}
						}
					}
				}
				JOINT mixamorig:RightShoulder
				{
					OFFSET -12.001300 18.284088 1.348900
					CHANNELS 3 Xrotation Yrotation Zrotation
					JOINT mixamorig:RightArm
					{
						OFFSET -25.308500 -0.751312 -5.164599
						CHANNELS 3 Xrotation Yrotation Zrotation
						JOINT mixamorig:RightForeArm
						{
							OFFSET -54.684429 0.000000 0.000000
							CHANNELS 3 Xrotation Yrotation Zrotation
							JOINT mixamorig:RightHand
							{
								OFFSET -55.150291 0.000000 0.000000
								CHANNELS 3 Xrotation Yrotation Zrotation
								JOINT mixamorig:RightHandMiddle1
								{
									OFFSET -23.317566 0.000000 0.000000
									CHANNELS 3 Xrotation Yrotation Zrotation
									JOINT mixamorig:RightHandMiddle2
									{
										OFFSET -6.378403 0.000000 0.000000
										CHANNELS 3 Xrotation Yrotation Zrotation
										JOINT mixamorig:RightHandMiddle3
										{
											OFFSET -6.148193 0.000000 0.000000
											CHANNELS 3 Xrotation Yrotation Zrotation
											JOINT mixamorig:RightHandMiddle4
											{
												OFFSET -6.583389 0.000000 0.000000
												CHANNELS 3 Xrotation Yrotation Zrotation
												End Site
												{
													OFFSET 1.171692 6.395905 1.029786
												}
											}
										}
									}
								}
								JOINT mixamorig:RightHandThumb1
								{
									OFFSET -7.190521 -3.860474 5.435846
									CHANNELS 3 Xrotation Yrotation Zrotation
									JOINT mixamorig:RightHandThumb2
									{
										OFFSET -6.567429 -3.791718 3.791708
										CHANNELS 3 Xrotation Yrotation Zrotation
										JOINT mixamorig:RightHandThumb3
										{
											OFFSET -6.062469 -3.500153 3.500166
											CHANNELS 3 Xrotation Yrotation Zrotation
											JOINT mixamorig:RightHandThumb4
											{
												OFFSET -4.792618 -2.767029 2.767022
												CHANNELS 3 Xrotation Yrotation Zrotation
												End Site
												{
													OFFSET -0.100327 6.053253 1.276754
												}
											}
										}
									}
								}
								JOINT mixamorig:RightHandIndex1
								{
									OFFSET -23.048981 -0.310791 4.992554
									CHANNELS 3 Xrotation Yrotation Zrotation
									JOINT mixamorig:RightHandIndex2
									{
										OFFSET -6.227539 0.000000 0.000000
										CHANNELS 3 Xrotation Yrotation Zrotation
										JOINT mixamorig:RightHandIndex3
										{
											OFFSET -6.095047 0.000000 0.000000
											CHANNELS 3 Xrotation Yrotation Zrotation
											JOINT mixamorig:RightHandIndex4
											{
												OFFSET -5.484772 0.000000 0.000000
												CHANNELS 3 Xrotation Yrotation Zrotation
												End Site
												{
													OFFSET 1.420593 5.237305 0.797056
												}
											}
										}
									}
								}
								JOINT mixamorig:RightHandRing1
								{
									OFFSET -22.246323 0.020569 -3.963762
									CHANNELS 3 Xrotation Yrotation Zrotation
									JOINT mixamorig:RightHandRing2
									{
										OFFSET -6.322128 0.000000 0.000000
										CHANNELS 3 Xrotation Yrotation Zrotation
										JOINT mixamorig:RightHandRing3
										{
											OFFSET -5.900024 0.000000 0.000000
											CHANNELS 3 Xrotation Yrotation Zrotation
											JOINT mixamorig:RightHandRing4
											{
												OFFSET -6.518356 0.000000 0.000000
												CHANNELS 3 Xrotation Yrotation Zrotation
												End Site
												{
													OFFSET 1.636398 6.232697 0.982186
												}
											}
										}
									}
								}
								JOINT mixamorig:RightHandPinky1
								{
									OFFSET -20.411011 -0.303314 -8.561701
									CHANNELS 3 Xrotation Yrotation Zrotation
									JOINT mixamorig:RightHandPinky2
									{
										OFFSET -6.907349 0.000000 0.000000
										CHANNELS 3 Xrotation Yrotation Zrotation
										JOINT mixamorig:RightHandPinky3
										{
											OFFSET -4.623840 0.000000 0.000000
											CHANNELS 3 Xrotation Yrotation Zrotation
											JOINT mixamorig:RightHandPinky4
											{
												OFFSET -5.218353 0.000000 0.000000
												CHANNELS 3 Xrotation Yrotation Zrotation
												End Site
												{
													OFFSET 0.602097 5.118835 0.816273
												}
											}
										}
									}
								}
							}
						}
					}
				}
			}
		}
	}
	JOINT mixamorig:LeftUpLeg
	{
		OFFSET 18.168400 -13.561905 -0.039000
		CHANNELS 3 Xrotation Yrotation Zrotation
		JOINT mixamorig:LeftLeg
		{
			OFFSET 0.577358 -80.825211 -3.695000
			CHANNELS 3 Xrotation Yrotation Zrotation
			JOINT mixamorig:LeftFoot
			{
				OFFSET -0.577356 -83.370262 -6.520700
				CHANNELS 3 Xrotation Yrotation Zrotation
				JOINT mixamorig:LeftToeBase
				{
					OFFSET 0.750401 -20.798306 25.135401
					CHANNELS 3 Xrotation Yrotation Zrotation
					JOINT mixamorig:LeftToe_End
					{
						OFFSET -0.000500 0.001200 19.917799
						CHANNELS 3 Xrotation Yrotation Zrotation
						End Site
						{
							OFFSET 0.000000 19.917805 0.000000
						}
					}
				}
			}
		}
	}
	JOINT mixamorig:RightUpLeg
	{
		OFFSET -18.162500 -13.585098 -0.041000
		CHANNELS 3 Xrotation Yrotation Zrotation
		JOINT mixamorig:RightLeg
		{
			OFFSET -0.595024 -80.945297 -3.631900
			CHANNELS 3 Xrotation Yrotation Zrotation
			JOINT mixamorig:RightFoot
			{
				OFFSET 0.595024 -83.218193 -6.561200
				CHANNELS 3 Xrotation Yrotation Zrotation
				JOINT mixamorig:RightToeBase
				{
					OFFSET -0.753601 -20.807106 25.115000
					CHANNELS 3 Xrotation Yrotation Zrotation
					JOINT mixamorig:RightToe_End
					{
						OFFSET 0.000299 0.001700 19.918200
						CHANNELS 3 Xrotation Yrotation Zrotation
						End Site
						{
							OFFSET 0.000000 19.918203 0.000000
						}
					}
				}
			}
		}
	}
}
MOTION
Frames: 4
Frame Time: 0.033333
-0.445084 189.538208 88.497711 -21.915512 -39.603284 -12.830332 9.569978 0.693728 2.955953 16.826465 0.090502 -0.601267 16.827414 0.022510 -0.580074 1.147152 7.516721 0.149719 -4.301488 22.210617 8.623359 -0.000001 0.000001 0.000001 -0.000001 0.000001 0.000001 -0.000001 0.000001 0.000001 -37.491974 -4.692721 0.505302 -39.773093 -5.995546 -63.603787 0.000059 -64.148331 0.000055 -120.530969 -0.366155 31.095225 0.405919 5.507044 -52.453145 3.387132 5.308622 -65.057470 0.282021 1.797453 -17.832376 0.000003 -0.000001 -0.000001 4.709208 9.560388 3.111987 19.473184 -1.474900 7.636928 -4.536185 -9.613122 1.492971 0.000000 0.000003 -0.000002 -0.212824 3.933700 -36.747125 2.942140 5.078902 -60.144597 0.513674 2.400819 -24.150519 0.000001 0.000003 -0.000002 -0.074366 5.736816 -61.061420 4.055033 5.569511 -72.094928 0.582668 2.548971 -25.748000 -0.000002 -0.000001 -0.000001 -6.565568 4.545149 -72.425222 3.299623 5.267212 -64.107800 0.175347 1.424018 -14.038899 -0.000002 -0.000002 0.000006 -41.162552 -8.635362 -9.913302 -43.986032 58.008305 97.555005 -0.000842 98.953240 0.000840 -53.254404 -22.089441 -28.130049 3.413055 -7.186267 51.650259 6.296831 -4.359609 110.634660 0.248734 -1.503065 18.790274 0.000001 0.000000 -0.000000 8.377136 -4.904144 11.022007 21.620189 -18.183886 -18.379209 -0.702947 -49.821193 -32.535189 0.000000 -0.000001 -0.000001 -0.920032 1.683580 12.434977 0.748115 -2.533457 32.898293 0.615642 -2.316062 29.767836 0.000001 0.000001 -0.000002 -3.349027 -2.600434 57.010568 5.440857 -4.590905 99.698174 1.689408 -3.590679 50.382252 -0.000001 -0.000000 -0.000003 -3.996447 -3.303949 64.593850 4.058848 -4.618662 82.610530 2.315546 -4.026783 59.787214 0.000000 0.000000 0.000001 -27.651242 40.922918 34.907826 28.987671 0.282316 0.601578 4.180236 1.122525 -3.418391 -0.676893 -0.000003 0.000001 -0.000000 -0.000001 0.000000 -2.118631 6.238252 -2.929504 42.798891 -0.335443 2.121705 -23.385442 -16.381398 1.560425 1.070560 0.000014 0.000001 -0.000000 0.000003 -0.000000 
0.956692 190.187531 90.029816 -21.206335 -39.565452 -12.261099 9.601522 0.685630 3.061993 16.792529 0.090738 -0.565030 16.793528 0.020842 -0.542527 1.065087 7.519481 0.137039 -4.459170 22.209330 8.411732 0.000002 0.000001 0.000001 0.000002 0.000001 0.000001 0.000002 0.000001 0.000001 -37.489587 -4.668415 0.497321 -39.460400 -5.974262 -63.697627 -0.000043 -65.002405 -0.000053 -120.701354 -0.714925 30.971561 0.405918 5.507042 -52.453145 3.387134 5.308622 -65.057477 0.282025 1.797453 -17.832377 0.000002 -0.000002 -0.000003 4.709207 9.560386 3.111985 19.473189 -1.474898 7.636928 -4.536189 -9.613117 1.492972 -0.000001 -0.000000 0.000001 -0.212823 3.933699 -36.747131 2.942139 5.078910 -60.144590 0.513671 2.400818 -24.150519 -0.000004 -0.000001 -0.000002 -0.074366 5.736818 -61.061413 4.055032 5.569508 -72.094921 0.582674 2.548976 -25.748003 -0.000001 0.000000 -0.000002 -6.565568 4.545148 -72.425222 3.299620 5.267213 -64.107794 0.175347 1.424021 -14.038895 0.000000 -0.000001 0.000000 -41.137707 -8.539008 -9.839938 -42.910667 57.954640 96.748175 -0.000686 99.726629 0.000696 -52.548279 -22.367932 -28.161599 3.413056 -7.186267 51.650256 6.296830 -4.359609 110.634660 0.248734 -1.503065 18.790277 0.000002 0.000000 0.000001 8.377137 -4.904144 11.022006 21.620192 -18.183885 -18.379213 -0.702943 -49.821189 -32.535189 0.000001 -0.000001 -0.000002 -0.920033 1.683580 12.434975 0.748116 -2.533458 32.898299 0.615644 -2.316062 29.767836 -0.000000 0.000000 0.000000 -3.349027 -2.600434 57.010564 5.440854 -4.590907 99.698174 1.689411 -3.590679 50.382252 0.000000 -0.000000 0.000001 -3.996446 -3.303951 64.593850 4.058848 -4.618659 82.610523 2.315547 -4.026783 59.787214 0.000000 0.000001 0.000001 -26.685962 40.803984 33.129102 28.626018 1.126512 0.634344 3.712906 1.145650 -3.156505 -0.628629 0.000004 -0.000003 -0.000000 0.000001 0.000000 -1.866883 5.932525 -3.797862 41.467619 0.143604 1.783599 -22.609903 -16.650832 2.297963 0.895664 0.000005 0.000001 0.000000 0.000002 -0.000000 
2.101202 190.682953 91.258865 -20.904561 -39.673236 -12.064787 9.618896 0.755177 3.163134 16.753614 0.110627 -0.548999 16.754712 0.039813 -0.526454 0.962823 7.517382 0.137042 -4.865196 22.377035 8.209731 -0.000003 0.000000 0.000002 -0.000003 0.000000 0.000002 -0.000003 0.000000 0.000002 -37.489857 -4.666923 0.511211 -39.637818 -6.167287 -63.725863 0.000120 -64.521307 0.000099 -120.846100 -0.682818 30.485173 0.405919 5.507042 -52.453145 3.387135 5.308624 -65.057477 0.282020 1.797452 -17.832374 0.000002 -0.000001 -0.000001 4.709209 9.560388 3.111985 19.473185 -1.474896 7.636928 -4.536182 -9.613122 1.492975 -0.000001 -0.000001 0.000002 -0.212822 3.933703 -36.747128 2.942139 5.078911 -60.144597 0.513669 2.400819 -24.150518 -0.000001 0.000001 -0.000003 -0.074364 5.736812 -61.061413 4.055028 5.569514 -72.094921 0.582671 2.548978 -25.748005 -0.000002 0.000000 0.000001 -6.565567 4.545146 -72.425222 3.299620 5.267213 -64.107800 0.175352 1.424019 -14.038898 0.000002 0.000000 0.000001 -41.085422 -8.460127 -9.706579 -42.805550 58.021091 96.400436 0.000770 99.473352 -0.000763 -52.360042 -22.190832 -27.928836 3.413056 -7.186266 51.650256 6.296831 -4.359609 110.634653 0.248735 -1.503066 18.790274 0.000002 -0.000001 -0.000001 8.377137 -4.904144 11.022006 21.620197 -18.183886 -18.379211 -0.702947 -49.821189 -32.535183 0.000002 -0.000000 -0.000002 -0.920034 1.683580 12.434976 0.748115 -2.533458 32.898299 0.615644 -2.316063 29.767839 -0.000000 -0.000000 -0.000001 -3.349027 -2.600435 57.010571 5.440855 -4.590905 99.698161 1.689409 -3.590680 50.382248 0.000000 0.000001 -0.000001 -3.996445 -3.303949 64.593850 4.058848 -4.618662 82.610523 2.315547 -4.026782 59.787214 -0.000002 -0.000001 0.000002 -26.126472 41.094516 32.390622 28.370109 1.352342 0.303912 3.301969 1.179178 -2.704616 -0.555466 -0.000004 -0.000000 -0.000000 0.000001 0.000000 -1.499652 5.862244 -4.334376 40.358707 0.416344 1.417150 -21.924808 -16.826424 2.979305 0.659718 -0.000017 0.000000 0.000000 0.000002 -0.000000 
2.984051 191.198273 92.326622 -20.511494 -39.854253 -11.902865 9.573777 0.858984 3.192549 16.723848 0.139920 -0.538596 16.725108 0.067735 -0.516041 0.903180 7.519185 0.127921 -5.213386 22.427360 8.220147 0.000000 -0.000000 0.000002 0.000000 -0.000000 0.000002 0.000000 -0.000000 0.000002 -37.493552 -4.701778 0.551990 -39.602383 -6.321035 -63.682505 -0.000019 -64.896032 -0.000019 -120.914388 -1.003520 30.496573 0.405918 5.507043 -52.453145 3.387134 5.308622 -65.057477 0.282012 1.797449 -17.832372 0.000002 0.000001 0.000003 4.709206 9.560387 3.111986 19.473187 -1.474904 7.636928 -4.536179 -9.613123 1.492974 -0.000003 0.000001 0.000000 -0.212824 3.933701 -36.747131 2.942141 5.078907 -60.144597 0.513668 2.400819 -24.150521 0.000001 0.000000 -0.000000 -0.074365 5.736819 -61.061420 4.055030 5.569513 -72.094921 0.582669 2.548972 -25.747998 -0.000000 0.000002 0.000001 -6.565568 4.545143 -72.425229 3.299623 5.267211 -64.107794 0.175344 1.424021 -14.038899 0.000000 0.000001 -0.000008 -41.082423 -8.231068 -9.659165 -42.039667 57.991223 95.402306 0.000401 99.866395 -0.000431 -52.440881 -22.027490 -28.014496 3.413055 -7.186267 51.650256 6.296831 -4.359610 110.634660 0.248733 -1.503065 18.790274 0.000000 -0.000000 0.000001 8.377137 -4.904143 11.022005 21.620194 -18.183886 -18.379214 -0.702947 -49.821193 -32.535186 0.000000 0.000001 -0.000000 -0.920033 1.683581 12.434977 0.748116 -2.533458 32.898296 0.615644 -2.316062 29.767832 -0.000001 0.000000 -0.000002 -3.349027 -2.600434 57.010564 5.440855 -4.590907 99.698174 1.689408 -3.590679 50.382252 -0.000000 0.000000 0.000000 -3.996447 -3.303950 64.593850 4.058846 -4.618659 82.610530 2.315546 -4.026782 59.787214 0.000000 0.000000 0.000001 -25.685435 41.361071 31.795388 27.926282 1.609140 0.045315 3.063259 1.189239 -2.376960 -0.464118 -0.000004 0.000003 0.000000 0.000001 0.000000 -1.175203 6.071683 -4.553166 39.171377 0.349734 1.042039 -21.194140 -16.979548 3.657339 0.491529 0.000002 -0.000003 0.000000 -0.000002 0.000000 
